<svg width="3187" height="521" xmlns="http://www.w3.org/2000/svg" xmlns:xlink="http://www.w3.org/1999/xlink" xml:space="preserve" overflow="hidden"><defs><clipPath id="clip0"><rect x="828" y="680" width="3187" height="521"/></clipPath><clipPath id="clip1"><rect x="828" y="755" width="299" height="299"/></clipPath><clipPath id="clip2"><rect x="828" y="755" width="299" height="299"/></clipPath><clipPath id="clip3"><rect x="828" y="755" width="299" height="299"/></clipPath></defs><g clip-path="url(#clip0)" transform="translate(-828 -680)"><text font-family="Open Sans,Open Sans_MSFontService,sans-serif" font-weight="700" font-size="248" transform="matrix(1 0 0 1 1172.61 988)">FLEXIBLE</text><text font-family="Open Sans,Open Sans_MSFontService,sans-serif" font-weight="700" font-size="248" transform="matrix(1 0 0 1 2342.51 988)">POMODOR</text><text font-family="Open Sans,Open Sans_MSFontService,sans-serif" font-weight="700" font-size="248" transform="matrix(1 0 0 1 3668.81 988)">O</text><g clip-path="url(#clip1)"><g clip-path="url(#clip2)"><g clip-path="url(#clip3)"><path d="M972.381 757.229C975.243 755.594 978.757 755.594 981.619 757.229L1051.46 797.143C1054.36 798.8 1056.16 801.884 1056.16 805.226L1056.16 879.633 1121.31 916.883C1124.2 918.533 1125.99 921.601 1126 924.929L1126 1004.76C1126 1008.1 1124.21 1011.18 1121.31 1012.84L1051.46 1052.75C1048.6 1054.39 1045.09 1054.39 1042.22 1052.75L977 1015.5 911.775 1052.77C908.913 1054.41 905.4 1054.41 902.537 1052.77L832.694 1012.86C829.792 1011.2 828.001 1008.12 828 1004.77L828 924.947C828.001 921.606 829.792 918.521 832.694 916.864L897.844 879.633 897.844 805.226C897.845 801.884 899.636 798.8 902.537 797.143L972.381 757.229ZM907.156 895.762 856.087 924.947 907.156 954.133 958.226 924.947 907.156 895.762ZM967.688 941.002 916.469 970.262 916.469 1028.63 967.688 999.373 967.688 941.002ZM986.313 999.373 1037.53 1028.63 1037.53 970.262 986.313 941.002 986.313 999.373ZM995.774 924.947 1046.84 954.133 1097.91 924.947 1046.84 895.762 995.774 924.947ZM1037.53 879.633 1037.53 821.262 986.313 850.54 986.313 908.911 1037.53 879.633ZM967.688 908.911 967.688 850.54 916.469 821.262 916.469 879.633 967.688 908.911ZM925.93 805.226 977 834.411 1028.07 805.226 977 776.04 925.93 805.226ZM1107.38 941.002 1056.16 970.262 1056.16 1028.63 1107.38 999.373 1107.38 941.002ZM897.844 1028.63 897.844 970.262 846.625 941.002 846.625 999.373 897.844 1028.63Z"/></g></g></g></g></svg>