<svg width="3187" height="521" xmlns="http://www.w3.org/2000/svg" xmlns:xlink="http://www.w3.org/1999/xlink" xml:space="preserve" overflow="hidden"><defs><clipPath id="clip0"><rect x="828" y="1100" width="3187" height="521"/></clipPath><clipPath id="clip1"><rect x="828" y="1175" width="299" height="299"/></clipPath><clipPath id="clip2"><rect x="828" y="1175" width="299" height="299"/></clipPath><clipPath id="clip3"><rect x="828" y="1175" width="299" height="299"/></clipPath></defs><g clip-path="url(#clip0)" transform="translate(-828 -1100)"><text fill="#FFFFFF" font-family="Open Sans,Open Sans_MSFontService,sans-serif" font-weight="700" font-size="248" transform="matrix(1 0 0 1 1172.61 1408)">FLEXIBLE</text><text fill="#FFFFFF" font-family="Open Sans,Open Sans_MSFontService,sans-serif" font-weight="700" font-size="248" transform="matrix(1 0 0 1 2342.51 1408)">POMODOR</text><text fill="#FFFFFF" font-family="Open Sans,Open Sans_MSFontService,sans-serif" font-weight="700" font-size="248" transform="matrix(1 0 0 1 3668.81 1408)">O</text><g clip-path="url(#clip1)"><g clip-path="url(#clip2)"><g clip-path="url(#clip3)"><path d="M972.381 1177.23C975.243 1175.59 978.757 1175.59 981.619 1177.23L1051.46 1217.14C1054.36 1218.8 1056.16 1221.88 1056.16 1225.23L1056.16 1299.63 1121.31 1336.88C1124.2 1338.53 1125.99 1341.6 1126 1344.93L1126 1424.76C1126 1428.1 1124.21 1431.18 1121.31 1432.84L1051.46 1472.75C1048.6 1474.39 1045.09 1474.39 1042.22 1472.75L977 1435.5 911.775 1472.77C908.913 1474.41 905.4 1474.41 902.537 1472.77L832.694 1432.86C829.792 1431.2 828.001 1428.12 828 1424.77L828 1344.95C828.001 1341.61 829.792 1338.52 832.694 1336.86L897.844 1299.63 897.844 1225.23C897.845 1221.88 899.636 1218.8 902.537 1217.14L972.381 1177.23ZM907.156 1315.76 856.087 1344.95 907.156 1374.13 958.226 1344.95 907.156 1315.76ZM967.688 1361 916.469 1390.26 916.469 1448.63 967.688 1419.37 967.688 1361ZM986.313 1419.37 1037.53 1448.63 1037.53 1390.26 986.313 1361 986.313 1419.37ZM995.774 1344.95 1046.84 1374.13 1097.91 1344.95 1046.84 1315.76 995.774 1344.95ZM1037.53 1299.63 1037.53 1241.26 986.313 1270.54 986.313 1328.91 1037.53 1299.63ZM967.688 1328.91 967.688 1270.54 916.469 1241.26 916.469 1299.63 967.688 1328.91ZM925.93 1225.23 977 1254.41 1028.07 1225.23 977 1196.04 925.93 1225.23ZM1107.38 1361 1056.16 1390.26 1056.16 1448.63 1107.38 1419.37 1107.38 1361ZM897.844 1448.63 897.844 1390.26 846.625 1361 846.625 1419.37 897.844 1448.63Z" fill="#FFFFFF"/></g></g></g></g></svg>